<?xml version="1.0" standalone="no"?>
<!DOCTYPE svg PUBLIC "-//W3C//DTD SVG 20010904//EN"
 "http://www.w3.org/TR/2001/REC-SVG-20010904/DTD/svg10.dtd">
<svg version="1.0" xmlns="http://www.w3.org/2000/svg"
 width="344.000000pt" height="344.000000pt" viewBox="0 0 344.000000 344.000000"
 preserveAspectRatio="xMidYMid meet">
<metadata>
Created by potrace 1.11, written by Peter Selinger 2001-2013
</metadata>
<g transform="translate(0.000000,344.000000) scale(0.100000,-0.100000)"
fill="#000000" stroke="none">
<path d="M1381 3073 c-7 -38 -15 -121 -18 -185 l-6 -117 -39 -26 c-34 -22 -39
-30 -34 -53 7 -33 0 -45 -40 -65 -52 -27 -131 -105 -176 -175 -76 -115 -111
-225 -128 -401 -34 -329 69 -714 245 -920 l45 -53 -41 -30 c-22 -16 -47 -45
-55 -64 -8 -19 -22 -37 -32 -40 -51 -16 -151 -60 -175 -78 l-27 -20 -64 32
c-89 44 -183 59 -281 44 -232 -36 -392 -170 -462 -385 -26 -79 -31 -212 -11
-278 l11 -39 393 0 393 0 7 37 c4 21 2 84 -5 141 -7 58 -11 106 -9 108 2 1 24
-10 49 -26 57 -35 69 -65 69 -176 l0 -84 1200 0 1200 0 -2 323 -3 322 -60 32
c-206 111 -430 112 -615 3 -36 -21 -83 -55 -104 -75 -22 -19 -42 -32 -46 -28
-3 4 -12 26 -19 48 -27 77 -56 112 -125 144 -35 17 -91 35 -125 39 -34 5 -62
11 -64 13 -1 2 -9 17 -19 34 -21 37 -88 73 -167 87 -33 6 -61 16 -61 20 0 5
11 24 24 41 43 58 77 138 98 230 19 87 19 104 9 327 -20 402 -41 528 -114 680
-67 140 -181 234 -306 255 -29 5 -45 13 -48 25 -5 19 -43 40 -73 40 -23 0 -31
12 -46 65 -38 132 -107 295 -124 295 -4 0 -12 -30 -19 -67z m64 -69 c12 -32
25 -66 28 -74 23 -55 47 -128 47 -141 0 -25 -44 -49 -88 -49 -62 0 -67 13 -53
138 20 175 23 193 34 189 6 -2 20 -30 32 -63z m-171 -566 c15 -25 -16 -86 -49
-94 -37 -9 -75 10 -75 38 1 58 95 101 124 56z m-127 -182 c-3 -7 -28 -29 -56
-49 -58 -42 -66 -32 -29 34 24 43 68 65 81 42 5 -8 6 -20 4 -27z m572 -2 c41
-52 19 -125 -49 -163 -56 -31 -93 -27 -138 13 -35 33 -37 38 -37 96 0 43 4 63
15 70 8 5 54 10 102 10 82 0 88 -1 107 -26z m-370 -30 c65 -83 -31 -208 -134
-174 -46 15 -75 54 -75 99 0 49 16 69 70 86 73 23 115 19 139 -11z m-294 -250
c14 -14 38 -30 54 -35 24 -9 30 -18 41 -67 13 -65 10 -134 -7 -139 -23 -8 -79
55 -96 108 -18 56 -34 159 -24 159 3 0 18 -11 32 -26z"/>
<path d="M1601 2206 c-16 -19 -7 -46 14 -46 22 0 30 29 13 46 -13 13 -16 13
-27 0z"/>
<path d="M1251 2172 c-13 -25 11 -63 29 -46 14 14 9 56 -7 61 -6 2 -16 -4 -22
-15z"/>
</g>
</svg>
